<svg width="50" height="51" viewBox="0 0 50 51" fill="none" xmlns="http://www.w3.org/2000/svg">
<path d="M50 25.5359C50 39.343 38.8071 50.5359 25 50.5359C11.1929 50.5359 0 39.343 0 25.5359C0 11.7287 11.1929 0.535889 25 0.535889C38.8071 0.535889 50 11.7287 50 25.5359ZM26.2625 37.5127C26.5973 37.1778 26.7853 36.7237 26.7853 36.2502C26.7853 35.7767 26.5973 35.3225 26.2625 34.9877L18.5964 27.3216H35.7143C36.1879 27.3216 36.6421 27.1335 36.977 26.7986C37.3119 26.4637 37.5 26.0095 37.5 25.5359C37.5 25.0623 37.3119 24.6081 36.977 24.2732C36.6421 23.9383 36.1879 23.7502 35.7143 23.7502H18.5964L26.2625 16.0841C26.5878 15.7473 26.7678 15.2962 26.7637 14.828C26.7596 14.3598 26.5718 13.9119 26.2407 13.5809C25.9097 13.2498 25.4618 13.062 24.9936 13.0579C24.5254 13.0538 24.0743 13.2338 23.7375 13.5591L13.0232 24.2734C12.6884 24.6083 12.5004 25.0624 12.5004 25.5359C12.5004 26.0094 12.6884 26.4635 13.0232 26.7984L23.7375 37.5127C24.0724 37.8474 24.5265 38.0355 25 38.0355C25.4735 38.0355 25.9276 37.8474 26.2625 37.5127Z" fill="#FECB00"/>
</svg>
