<svg width="50" height="51" viewBox="0 0 50 51" fill="none" xmlns="http://www.w3.org/2000/svg">
<path d="M0 25.5359C0 39.343 11.1929 50.5359 25 50.5359C38.8071 50.5359 50 39.343 50 25.5359C50 11.7287 38.8071 0.535889 25 0.535889C11.1929 0.535889 0 11.7287 0 25.5359ZM23.7375 37.5127C23.4027 37.1778 23.2147 36.7237 23.2147 36.2502C23.2147 35.7767 23.4027 35.3225 23.7375 34.9877L31.4036 27.3216H14.2857C13.8121 27.3216 13.3579 27.1335 13.023 26.7986C12.6881 26.4637 12.5 26.0095 12.5 25.5359C12.5 25.0623 12.6881 24.6081 13.023 24.2732C13.3579 23.9383 13.8121 23.7502 14.2857 23.7502H31.4036L23.7375 16.0841C23.4122 15.7473 23.2322 15.2962 23.2363 14.828C23.2404 14.3598 23.4282 13.9119 23.7593 13.5809C24.0903 13.2498 24.5382 13.062 25.0064 13.0579C25.4746 13.0538 25.9257 13.2338 26.2625 13.5591L36.9768 24.2734C37.3116 24.6083 37.4996 25.0624 37.4996 25.5359C37.4996 26.0094 37.3116 26.4635 36.9768 26.7984L26.2625 37.5127C25.9276 37.8474 25.4735 38.0355 25 38.0355C24.5265 38.0355 24.0724 37.8474 23.7375 37.5127Z" fill="#006336"/>
</svg>
