<svg width="280" height="239" viewBox="0 0 280 239" fill="none" xmlns="http://www.w3.org/2000/svg">
<path d="M122.777 0.427429L57.172 238.644H47.6434L113.248 0.427429H122.777Z" fill="#FECB00"/>
<path d="M70.3692 0.427429L4.76434 238.644H0L65.6049 0.427429H70.3692Z" fill="#FECB00"/>
<path d="M96.5731 0.427429L30.9682 238.644H23.8217L89.4266 0.427429H96.5731Z" fill="#FECB00"/>
<path d="M280 0.427429L214.395 238.644H190.573L256.178 0.427429H280Z" fill="#006437"/>
<path d="M227.592 0.427429L161.987 238.644H142.93L208.535 0.427429H227.592Z" fill="#006437"/>
<path d="M253.796 0.427429L188.191 238.644H166.752L232.357 0.427429H253.796Z" fill="#006437"/>
<path d="M201.388 0.427429L135.784 238.644H119.108L184.713 0.427429H201.388Z" fill="#C8102E"/>
<path d="M148.981 0.427429L83.3759 238.644H71.465L137.07 0.427429H148.981Z" fill="#C8102E"/>
<path d="M175.185 0.427429L109.58 238.644H95.2867L160.892 0.427429H175.185Z" fill="#C8102E"/>
</svg>
