<svg width="32" height="33" viewBox="0 0 32 33" fill="none" xmlns="http://www.w3.org/2000/svg">
<path d="M15.0285 1.01117C15.1436 0.863192 15.2909 0.743448 15.4592 0.661078C15.6276 0.578708 15.8126 0.535889 16 0.535889C16.1874 0.535889 16.3724 0.578708 16.5408 0.661078C16.7091 0.743448 16.8564 0.863192 16.9715 1.01117L19.1999 3.87703C19.2411 3.93005 19.2986 3.96813 19.3634 3.98546C19.4283 4.00279 19.4971 3.99842 19.5592 3.97301L22.921 2.60591C23.0946 2.53538 23.2821 2.50544 23.469 2.51837C23.656 2.53131 23.8375 2.58678 23.9998 2.68055C24.1621 2.77433 24.3008 2.90392 24.4053 3.05946C24.5099 3.21499 24.5775 3.39236 24.6031 3.57801L25.1015 7.17233C25.1105 7.23879 25.1409 7.30049 25.1883 7.34803C25.2356 7.39557 25.2971 7.42634 25.3636 7.43566L28.9591 7.93279C29.1448 7.95836 29.3221 8.02601 29.4777 8.13056C29.6332 8.23512 29.7628 8.37382 29.8566 8.53608C29.9503 8.69834 30.0058 8.87988 30.0187 9.06685C30.0317 9.25381 30.0017 9.44126 29.9312 9.61489L28.5629 12.9779C28.5378 13.0399 28.5336 13.1084 28.5509 13.173C28.5682 13.2376 28.6061 13.2948 28.6589 13.3359L31.5247 15.5644C31.6727 15.6794 31.7924 15.8268 31.8748 15.9951C31.9572 16.1635 32 16.3485 32 16.5359C32 16.7233 31.9572 16.9083 31.8748 17.0766C31.7924 17.245 31.6727 17.3923 31.5247 17.5074L28.6589 19.7346C28.6058 19.7758 28.5678 19.8332 28.5504 19.8981C28.5331 19.963 28.5375 20.0317 28.5629 20.0939L29.93 23.4569C30.0005 23.6304 30.0305 23.8178 30.0176 24.0047C30.0047 24.1916 29.9494 24.373 29.8557 24.5353C29.7621 24.6975 29.6327 24.8362 29.4773 24.9409C29.3219 25.0455 29.1447 25.1133 28.9591 25.139L25.3636 25.6361C25.2971 25.6454 25.2356 25.6762 25.1883 25.7237C25.1409 25.7713 25.1105 25.833 25.1015 25.8994L24.6031 29.495C24.5775 29.6807 24.5099 29.858 24.4053 30.0135C24.3008 30.1691 24.1621 30.2987 23.9998 30.3925C23.8375 30.4862 23.656 30.5417 23.469 30.5546C23.2821 30.5676 23.0946 30.5376 22.921 30.4671L19.5592 29.0988C19.4971 29.0734 19.4283 29.069 19.3634 29.0863C19.2986 29.1036 19.2411 29.1417 19.1999 29.1947L16.9715 32.0606C16.8564 32.2086 16.7091 32.3283 16.5408 32.4107C16.3724 32.4931 16.1874 32.5359 16 32.5359C15.8126 32.5359 15.6276 32.4931 15.4592 32.4107C15.2909 32.3283 15.1436 32.2086 15.0285 32.0606L12.8013 29.1947C12.7601 29.1417 12.7027 29.1036 12.6378 29.0863C12.5729 29.069 12.5041 29.0734 12.442 29.0988L9.079 30.4659C8.90537 30.5364 8.71792 30.5663 8.53096 30.5534C8.344 30.5405 8.16246 30.485 8.00019 30.3912C7.83793 30.2975 7.69923 30.1679 7.59467 30.0123C7.49012 29.8568 7.42247 29.6794 7.3969 29.4938L6.89977 25.8994C6.8907 25.8328 6.86004 25.771 6.81248 25.7234C6.76492 25.6759 6.70309 25.6452 6.63644 25.6361L3.04089 25.139C2.85524 25.1134 2.67788 25.0458 2.52234 24.9412C2.36681 24.8367 2.23721 24.698 2.14343 24.5357C2.04966 24.3734 1.99419 24.1919 1.98125 24.0049C1.96832 23.818 1.99826 23.6305 2.06879 23.4569L3.43712 20.0939C3.46223 20.0319 3.46645 19.9634 3.44913 19.8988C3.43181 19.8342 3.3939 19.777 3.34114 19.7358L0.475283 17.5074C0.327304 17.3923 0.207559 17.245 0.125189 17.0766C0.042819 16.9083 0 16.7233 0 16.5359C0 16.3485 0.042819 16.1635 0.125189 15.9951C0.207559 15.8268 0.327304 15.6794 0.475283 15.5644L3.34114 13.3372C3.39416 13.296 3.43224 13.2386 3.44957 13.1737C3.4669 13.1088 3.46253 13.04 3.43712 12.9779L2.07002 9.61489C1.99949 9.44126 1.96955 9.25381 1.98248 9.06685C1.99542 8.87988 2.05089 8.69834 2.14466 8.53608C2.23844 8.37382 2.36804 8.23512 2.52357 8.13056C2.67911 8.02601 2.85647 7.95836 3.04213 7.93279L6.63644 7.43566C6.70349 7.42678 6.76574 7.39605 6.81356 7.34822C6.86139 7.3004 6.89212 7.23815 6.901 7.1711L7.39813 3.57555C7.4237 3.3899 7.49135 3.21253 7.5959 3.057C7.70046 2.90146 7.83916 2.77187 8.00142 2.67809C8.16369 2.58432 8.34522 2.52885 8.53219 2.51591C8.71915 2.50298 8.9066 2.53292 9.08023 2.60345L12.4432 3.97178C12.5052 3.99689 12.5737 4.0011 12.6383 3.98378C12.703 3.96646 12.7602 3.92855 12.8013 3.8758L15.0285 1.01117ZM16.9296 10.0751C16.9296 9.83034 16.8324 9.5956 16.6593 9.42253C16.4863 9.24945 16.2515 9.15222 16.0068 9.15222C15.762 9.15222 15.5273 9.24945 15.3542 9.42253C15.1811 9.5956 15.0839 9.83034 15.0839 10.0751V15.6124H9.5466C9.30183 15.6124 9.06709 15.7096 8.89402 15.8827C8.72095 16.0558 8.62371 16.2905 8.62371 16.5353C8.62371 16.78 8.72095 17.0148 8.89402 17.1878C9.06709 17.3609 9.30183 17.4582 9.5466 17.4582H15.0839V22.9954C15.0839 23.2402 15.1811 23.4749 15.3542 23.648C15.5273 23.8211 15.762 23.9183 16.0068 23.9183C16.2515 23.9183 16.4863 23.8211 16.6593 23.648C16.8324 23.4749 16.9296 23.2402 16.9296 22.9954V17.4582H22.4669C22.7117 17.4582 22.9464 17.3609 23.1195 17.1878C23.2926 17.0148 23.3898 16.78 23.3898 16.5353C23.3898 16.2905 23.2926 16.0558 23.1195 15.8827C22.9464 15.7096 22.7117 15.6124 22.4669 15.6124H16.9296V10.0751Z" fill="white"/>
</svg>
