<svg width="41" height="41" viewBox="0 0 41 41" fill="none" xmlns="http://www.w3.org/2000/svg">
<path d="M0.179047 5.17908C0.179047 3.85299 0.705831 2.58122 1.64351 1.64354C2.58119 0.705861 3.85296 0.179077 5.17905 0.179077H35.179C36.5051 0.179077 37.7769 0.705861 38.7146 1.64354C39.6523 2.58122 40.179 3.85299 40.179 5.17908C40.179 6.50516 39.6523 7.77693 38.7146 8.71461C37.7769 9.65229 36.5051 10.1791 35.179 10.1791H5.17905C3.85296 10.1791 2.58119 9.65229 1.64351 8.71461C0.705831 7.77693 0.179047 6.50516 0.179047 5.17908ZM5.17905 20.1791C5.17905 18.853 5.70583 17.5812 6.64351 16.6435C7.58119 15.7059 8.85296 15.1791 10.179 15.1791H30.179C31.5051 15.1791 32.7769 15.7059 33.7146 16.6435C34.6523 17.5812 35.179 18.853 35.179 20.1791C35.179 21.5052 34.6523 22.7769 33.7146 23.7146C32.7769 24.6523 31.5051 25.1791 30.179 25.1791H10.179C8.85296 25.1791 7.58119 24.6523 6.64351 23.7146C5.70583 22.7769 5.17905 21.5052 5.17905 20.1791ZM15.179 30.1791C13.853 30.1791 12.5812 30.7059 11.6435 31.6435C10.7058 32.5812 10.179 33.853 10.179 35.1791C10.179 36.5052 10.7058 37.7769 11.6435 38.7146C12.5812 39.6523 13.853 40.1791 15.179 40.1791H25.179C26.5051 40.1791 27.7769 39.6523 28.7146 38.7146C29.6523 37.7769 30.179 36.5052 30.179 35.1791C30.179 33.853 29.6523 32.5812 28.7146 31.6435C27.7769 30.7059 26.5051 30.1791 25.179 30.1791H15.179Z" fill="black"/>
</svg>
