<svg width="340" height="62" viewBox="0 0 340 62" fill="none" xmlns="http://www.w3.org/2000/svg">
<path d="M8.97986 18.0538L1.13494 46.5325H0L3.48232 33.8876L6.28922 23.6787L6.29476 23.6732L7.84492 18.0538H8.97986Z" fill="#E0B000"/>
<path d="M15.2414 18.0538L7.40202 46.5325H5.6913L13.5362 18.0538H15.2414Z" fill="#E0B000"/>
<path d="M21.5085 18.0538L13.6636 46.5325H11.3881L19.2331 18.0538H21.5085Z" fill="#E0B000"/>
<path d="M27.8309 17.8601L19.9805 46.3443C19.2109 46.4716 18.4303 46.538 17.6275 46.538H17.0794L24.9244 18.0538H25.4725C26.2752 18.0538 27.0614 17.9874 27.8309 17.8601Z" fill="#C8102E"/>
<path d="M27.2219 42.8121C26.015 43.9194 24.6143 44.8162 23.0752 45.4474L30.9257 16.9632C32.4593 16.332 33.8599 15.4296 35.0668 14.3279L27.2219 42.8121Z" fill="#C8102E"/>
<path d="M44.2349 3.80897L28.5396 60.7774H24.559L28.4842 46.5325L30.3831 39.6066L40.2433 3.80897H44.2349Z" fill="#C8102E"/>
<path d="M50.502 3.80897L34.8066 60.7774H30.2503L45.9401 3.80897H50.502Z" fill="#006437"/>
<path d="M56.7635 3.80897L41.0737 60.7774H35.9471L51.6369 3.80897H56.7635Z" fill="#006437"/>
<path d="M63.0306 3.80897L47.3408 60.7774H41.644L57.3338 3.80897H63.0306Z" fill="#006437"/>
<path d="M108.273 32.2932C102.897 51.8141 94.6539 60.7774 81.9703 60.7774H63.2853L63.5344 59.8639H68.8493L84.0408 4.72245H78.726L78.9751 3.80897H97.6601C110.344 3.80897 113.649 12.7722 108.273 32.2932ZM98.1694 32.2932C103.379 13.3812 103.102 4.72245 97.411 4.72245H93.5356L78.344 59.8639H82.2194C87.9162 59.8639 92.9598 51.2051 98.1694 32.2932Z" fill="black"/>
<path d="M138.629 50.3691L139.542 50.5242C138.402 57.4334 133.995 61.5358 127.844 61.5358C116.146 61.5358 110.526 54.4715 110.526 41.7879C110.526 29.1043 115.919 22.04 125.718 22.04C135.517 22.04 141.286 29.1043 141.286 41.7879H120.625C120.625 53.7906 123.664 60.1684 128.447 60.1684C133.231 60.1684 137.411 57.284 138.623 50.3691H138.629ZM120.625 40.8744H131.182C131.105 29.4807 129.128 23.1029 125.712 23.1029C122.524 23.1029 120.702 29.4807 120.625 40.8744Z" fill="black"/>
<path d="M158.875 58.2694C156.932 60.0909 155.154 61.3088 152.115 61.3088C143.229 61.3088 140.411 58.5739 142.083 52.4951L150.011 23.7119H144.696L144.946 22.7984H150.26L152.813 13.5307H162.307L159.755 22.7984H167.882L167.633 23.7119H159.506L151.788 51.7366C150.177 57.5829 150.056 60.2403 153.017 60.2403C155.448 60.2403 156.804 59.1774 158.266 57.7324L158.88 58.2639L158.875 58.2694Z" fill="black"/>
<path d="M161.759 41.7879C161.759 29.9402 168.824 22.04 177.709 22.04C185.001 22.04 190.548 26.6738 190.548 31.7617C190.548 34.1921 188.798 35.7866 186.141 35.7866C183.484 35.7866 181.889 34.1921 181.889 31.7617C181.889 25.9873 183.102 23.1029 177.709 23.1029C173.762 23.1029 171.863 27.9638 171.863 41.7879C171.863 56.7525 173.684 60.4729 178.318 60.4729C183.788 60.4729 187.359 56.448 188.189 49.6107L189.252 49.7601C188.416 56.5975 184.846 61.5358 178.313 61.5358C169.427 61.5358 161.754 53.6355 161.754 41.7879H161.759Z" fill="black"/>
<path d="M229.728 59.8639V60.7774H210.357V59.8639H214.155V32.8246C214.155 25.8379 213.546 23.1029 210.661 23.1029C207.622 23.1029 203.22 27.5098 203.22 32.5201V59.8639H207.018V60.7774H187.652V59.8639H193.726V0.92456H187.652V0.0110726H203.22V27.5818H203.447C205.269 24.4704 208.231 22.04 211.497 22.04C217.953 22.04 223.649 24.9244 223.649 32.1437V59.8694H229.728V59.8639Z" fill="black"/>
<path d="M255.837 50.3691L256.751 50.5242C255.61 57.4334 251.203 61.5358 245.053 61.5358C233.354 61.5358 227.735 54.4715 227.735 41.7879C227.735 29.1043 233.128 22.04 242.927 22.04C252.726 22.04 258.495 29.1043 258.495 41.7879H237.833C237.833 53.7906 240.873 60.1684 245.656 60.1684C250.439 60.1684 254.619 57.284 255.832 50.3691H255.837ZM237.839 40.8744H248.397C248.319 29.4807 246.343 23.1029 242.927 23.1029C239.738 23.1029 237.916 29.4807 237.839 40.8744Z" fill="black"/>
<path d="M275.646 58.2694C273.703 60.0909 271.926 61.3088 268.886 61.3088C266.628 61.3088 264.756 61.1317 263.256 60.7663C258.855 59.6978 257.609 57.0293 258.86 52.4951L273.066 0.913487H267.751L268.001 0H282.81L268.56 51.7366C267.303 56.304 266.949 58.9227 268.261 59.8528C268.632 60.1185 269.13 60.2459 269.783 60.2459C270.437 60.2459 271.062 60.1628 271.599 60.0078C272.983 59.6203 273.98 58.7788 275.032 57.7379L275.646 58.2694Z" fill="black"/>
<path d="M305.448 50.3691L306.362 50.5242C305.221 57.4334 300.814 61.5358 294.663 61.5358C282.965 61.5358 277.346 54.4715 277.346 41.7879C277.346 29.1043 282.738 22.04 292.537 22.04C302.337 22.04 308.105 29.1043 308.105 41.7879H287.444C287.444 53.7906 290.483 60.1684 295.267 60.1684C300.05 60.1684 304.23 57.284 305.443 50.3691H305.448ZM287.45 40.8744H298.007C297.93 29.4807 295.953 23.1029 292.537 23.1029C289.349 23.1029 287.527 29.4807 287.45 40.8744Z" fill="black"/>
<path d="M340 28.8717C340 31.2247 338.328 32.7471 335.748 32.7471C333.168 32.7471 331.341 31.2302 331.341 28.8717C331.341 26.7458 332.177 26.8953 332.177 25.0738C332.177 23.7839 331.264 22.9479 329.974 22.9479C326.026 22.9479 321.697 28.7942 321.697 33.6551V59.8583H327.012V60.7718H306.882V59.8583H312.197V23.7119H306.882V22.7984H321.691V28.7998H321.918C323.817 24.9244 326.552 22.04 330.804 22.04C337.188 22.04 339.994 24.4704 339.994 28.8773L340 28.8717Z" fill="black"/>
</svg>
