<svg width="32" height="33" viewBox="0 0 32 33" fill="none" xmlns="http://www.w3.org/2000/svg">
<path d="M12.8 7.33689H19.2C19.2 6.4882 18.8629 5.67426 18.2627 5.07415C17.6626 4.47403 16.8487 4.13689 16 4.13689C15.1513 4.13689 14.3374 4.47403 13.7373 5.07415C13.1371 5.67426 12.8 6.4882 12.8 7.33689ZM9.6 7.33689C9.6 5.6395 10.2743 4.01164 11.4745 2.81141C12.6747 1.61117 14.3026 0.93689 16 0.93689C17.6974 0.93689 19.3253 1.61117 20.5255 2.81141C21.7257 4.01164 22.4 5.6395 22.4 7.33689H30.4C30.8243 7.33689 31.2313 7.50546 31.5314 7.80552C31.8314 8.10558 32 8.51254 32 8.93689C32 9.36124 31.8314 9.7682 31.5314 10.0683C31.2313 10.3683 30.8243 10.5369 30.4 10.5369H28.9888L27.5712 27.0809C27.4349 28.6784 26.704 30.1666 25.523 31.251C24.342 32.3355 22.7969 32.9371 21.1936 32.9369H10.8064C9.20305 32.9371 7.65804 32.3355 6.47704 31.251C5.29604 30.1666 4.56508 28.6784 4.4288 27.0809L3.0112 10.5369H1.6C1.17565 10.5369 0.768687 10.3683 0.468629 10.0683C0.168571 9.7682 0 9.36124 0 8.93689C0 8.51254 0.168571 8.10558 0.468629 7.80552C0.768687 7.50546 1.17565 7.33689 1.6 7.33689H9.6ZM20.8 16.9369C20.8 16.5125 20.6314 16.1056 20.3314 15.8055C20.0313 15.5055 19.6243 15.3369 19.2 15.3369C18.7757 15.3369 18.3687 15.5055 18.0686 15.8055C17.7686 16.1056 17.6 16.5125 17.6 16.9369V23.3369C17.6 23.7612 17.7686 24.1682 18.0686 24.4683C18.3687 24.7683 18.7757 24.9369 19.2 24.9369C19.6243 24.9369 20.0313 24.7683 20.3314 24.4683C20.6314 24.1682 20.8 23.7612 20.8 23.3369V16.9369ZM12.8 15.3369C12.3757 15.3369 11.9687 15.5055 11.6686 15.8055C11.3686 16.1056 11.2 16.5125 11.2 16.9369V23.3369C11.2 23.7612 11.3686 24.1682 11.6686 24.4683C11.9687 24.7683 12.3757 24.9369 12.8 24.9369C13.2243 24.9369 13.6313 24.7683 13.9314 24.4683C14.2314 24.1682 14.4 23.7612 14.4 23.3369V16.9369C14.4 16.5125 14.2314 16.1056 13.9314 15.8055C13.6313 15.5055 13.2243 15.3369 12.8 15.3369Z" fill="#0F0F0F" fill-opacity="0.8"/>
</svg>
