<svg width="41" height="41" viewBox="0 0 41 41" fill="none" xmlns="http://www.w3.org/2000/svg">
<path fill-rule="evenodd" clip-rule="evenodd" d="M20.5 0.93689C9.454 0.93689 0.5 9.89089 0.5 20.9369C0.5 24.7169 1.55 28.2569 3.376 31.2729L1.592 37.3369C1.48957 37.6851 1.48283 38.0544 1.57249 38.4061C1.66215 38.7577 1.8449 39.0788 2.10152 39.3354C2.35814 39.592 2.67916 39.7747 3.03083 39.8644C3.3825 39.9541 3.75183 39.9473 4.1 39.8449L10.164 38.0609C13.2815 39.9468 16.8565 40.9415 20.5 40.9369C31.546 40.9369 40.5 31.9829 40.5 20.9369C40.5 9.89089 31.546 0.93689 20.5 0.93689ZM15.976 25.4629C20.022 29.5069 23.884 30.0409 25.248 30.0909C27.322 30.1669 29.342 28.5829 30.128 26.7449C30.2264 26.5161 30.262 26.2651 30.231 26.018C30.2001 25.7708 30.1038 25.5364 29.952 25.3389C28.856 23.9389 27.374 22.9329 25.926 21.9329C25.6238 21.7234 25.2522 21.6392 24.8892 21.6981C24.5263 21.7571 24.2003 21.9545 23.98 22.2489L22.78 24.0789C22.7166 24.1769 22.6183 24.2471 22.505 24.2754C22.3917 24.3036 22.272 24.2877 22.17 24.2309C21.356 23.7649 20.17 22.9729 19.318 22.1209C18.466 21.2689 17.722 20.1369 17.304 19.3749C17.2534 19.2778 17.2391 19.1659 17.2637 19.0592C17.2883 18.9525 17.3501 18.8581 17.438 18.7929L19.286 17.4209C19.5505 17.1921 19.7213 16.8737 19.7655 16.5268C19.8098 16.1799 19.7245 15.8288 19.526 15.5409C18.63 14.2289 17.586 12.5609 16.072 11.4549C15.8762 11.3142 15.6474 11.2265 15.4077 11.2002C15.168 11.1739 14.9256 11.21 14.704 11.3049C12.864 12.0929 11.272 14.1129 11.348 16.1909C11.398 17.5549 11.932 21.4169 15.976 25.4629Z" fill="white"/>
</svg>
